<svg width="26" height="30" viewBox="0 0 26 30" fill="none" xmlns="http://www.w3.org/2000/svg">
<g id="fluent:delete-32-regular">
<path id="Vector" d="M10.5 5.50085V6.00085H15.5V5.50085C15.5 4.83781 15.2366 4.20193 14.7678 3.73309C14.2989 3.26425 13.663 3.00085 13 3.00085C12.337 3.00085 11.7011 3.26425 11.2322 3.73309C10.7634 4.20193 10.5 4.83781 10.5 5.50085ZM8.5 6.00085V5.50085C8.5 4.30738 8.97411 3.16279 9.81802 2.31887C10.6619 1.47496 11.8065 1.00085 13 1.00085C14.1935 1.00085 15.3381 1.47496 16.182 2.31887C17.0259 3.16279 17.5 4.30738 17.5 5.50085V6.00085H25C25.2652 6.00085 25.5196 6.10621 25.7071 6.29375C25.8946 6.48128 26 6.73564 26 7.00085C26 7.26607 25.8946 7.52042 25.7071 7.70796C25.5196 7.8955 25.2652 8.00085 25 8.00085H23.492L21.6 24.5689C21.4605 25.789 20.8768 26.9152 19.9601 27.7326C19.0435 28.55 17.8581 29.0014 16.63 29.0009H9.37C8.14186 29.0014 6.95647 28.55 6.03985 27.7326C5.12323 26.9152 4.53952 25.789 4.4 24.5689L2.508 8.00085H1C0.734784 8.00085 0.48043 7.8955 0.292893 7.70796C0.105357 7.52042 0 7.26607 0 7.00085C0 6.73564 0.105357 6.48128 0.292893 6.29375C0.48043 6.10621 0.734784 6.00085 1 6.00085H8.5ZM6.388 24.3409C6.47149 25.0728 6.82135 25.7484 7.37092 26.2389C7.92049 26.7295 8.63134 27.0007 9.368 27.0009H16.631C17.3677 27.0007 18.0785 26.7295 18.6281 26.2389C19.1776 25.7484 19.5275 25.0728 19.611 24.3409L21.48 8.00085H4.521L6.388 24.3409ZM10 11.5009C10.2652 11.5009 10.5196 11.6062 10.7071 11.7937C10.8946 11.9813 11 12.2356 11 12.5009V22.5009C11 22.7661 10.8946 23.0204 10.7071 23.208C10.5196 23.3955 10.2652 23.5009 10 23.5009C9.73478 23.5009 9.48043 23.3955 9.29289 23.208C9.10536 23.0204 9 22.7661 9 22.5009V12.5009C9 12.2356 9.10536 11.9813 9.29289 11.7937C9.48043 11.6062 9.73478 11.5009 10 11.5009ZM17 12.5009C17 12.2356 16.8946 11.9813 16.7071 11.7937C16.5196 11.6062 16.2652 11.5009 16 11.5009C15.7348 11.5009 15.4804 11.6062 15.2929 11.7937C15.1054 11.9813 15 12.2356 15 12.5009V22.5009C15 22.7661 15.1054 23.0204 15.2929 23.208C15.4804 23.3955 15.7348 23.5009 16 23.5009C16.2652 23.5009 16.5196 23.3955 16.7071 23.208C16.8946 23.0204 17 22.7661 17 22.5009V12.5009Z" fill="#5E5E75"/>
</g>
</svg>
