<svg width="599" height="32" viewBox="0 0 599 32" fill="none" xmlns="http://www.w3.org/2000/svg">
<rect width="599" height="32" transform="translate(0 0.000976562)" fill="#272734"/>
<path d="M175.598 11.7627H163V10.3564H175.598V11.7627ZM173.078 16.9072C173.078 15.0322 172.191 14.0947 170.418 14.0947C169.105 14.0947 168.008 14.7822 167.125 16.1572C166.344 17.376 165.953 18.6729 165.953 20.0479V23.458L164.031 22.4502V13.6377H166.047V15.0322L167.09 14.2471C168.012 13.5518 168.984 13.2041 170.008 13.2041C171.398 13.2041 172.551 13.7432 173.465 14.8213C174.324 15.8369 174.754 17.0518 174.754 18.4658C174.754 20.2393 174.004 21.9424 172.504 23.5752L170.242 22.1572C170.945 21.4619 171.543 20.8213 172.035 20.2354C172.73 19.4072 173.078 18.2979 173.078 16.9072Z" fill="white"/>
<path d="M187.351 11.7627H179.546V13.6377C179.578 13.6377 179.609 13.6533 179.64 13.6846C179.671 13.7158 179.699 13.7314 179.722 13.7314C179.66 13.7314 179.625 13.7275 179.617 13.7197C179.617 13.6807 180.199 13.5557 181.363 13.3447C181.792 13.2666 182.218 13.2275 182.64 13.2275C184.398 13.2275 185.527 13.7197 186.027 14.7041C186.363 15.3604 186.531 16.6846 186.531 18.6768V23.1885C186.367 23.126 185.746 22.8721 184.667 22.4268C184.667 22.1768 184.617 22.0166 184.515 21.9463C184.101 22.1885 183.761 22.3721 183.496 22.4971C182.652 22.8955 181.671 23.0947 180.554 23.0947C179.015 23.0947 177.828 22.6104 176.992 21.6416C176.585 21.1729 176.382 20.6494 176.382 20.0713C176.382 19.4229 176.703 18.7783 177.343 18.1377C178.585 16.8955 180.128 16.2744 181.972 16.2744C183.089 16.2744 183.988 16.5322 184.667 17.0479V15.9697C184.324 15.5322 183.988 15.2393 183.66 15.0908C183.339 14.9424 182.898 14.876 182.335 14.8916C181.078 14.915 179.925 15.1455 178.878 15.583C178.41 15.7783 177.953 15.9541 177.507 16.1104V15.2432C177.609 15.1572 177.757 15.0283 177.953 14.8564C177.984 14.8174 178.003 14.7939 178.011 14.7861V11.7627H175.609V10.3564H187.351V11.7627ZM184.667 19.1807C184.667 18.8369 184.257 18.5283 183.437 18.2549C182.757 18.0283 182.191 17.915 181.738 17.915C180.089 17.915 178.769 18.5088 177.777 19.6963C177.378 20.1729 177.179 20.5635 177.179 20.8682C177.343 21.4385 177.988 21.7236 179.113 21.7236C180.566 21.7236 181.894 21.3604 183.097 20.6338C184.144 20.001 184.667 19.5166 184.667 19.1807Z" fill="white"/>
<path d="M202.339 10.3564L202.315 11.7627H201.12V14.001C200.98 14.2822 200.651 14.876 200.136 15.7822L195.976 23.0947C195.28 23.0947 194.37 22.5439 193.245 21.4424C192.011 20.2393 191.394 18.9033 191.394 17.4346C191.394 16.6846 191.636 15.9854 192.12 15.3369C192.339 15.04 192.448 14.8174 192.448 14.6689C192.448 14.3955 192.218 14.2588 191.757 14.2588C191.413 14.2588 191.081 14.3994 190.761 14.6807C190.644 14.7822 190.39 15.0596 189.999 15.5127L188.487 14.1416C189.003 13.7041 189.507 13.4346 189.999 13.333C190.241 13.2783 190.554 13.251 190.937 13.251C193.054 13.2275 194.112 14.3564 194.112 16.6377C194.112 16.9424 194.077 17.3994 194.007 18.0088C193.944 18.6182 193.913 19.0752 193.913 19.3799C193.913 20.6143 194.132 21.2861 194.569 21.3955C194.812 21.3955 195.097 21.0986 195.425 20.5049L198.999 14.0479V11.7627H187.608V10.3564H202.339Z" fill="white"/>
<path d="M215.393 24.9697C215.393 26.4229 214.69 27.1494 213.284 27.1494C212.659 27.1494 211.752 26.8525 210.565 26.2588C209.252 25.6025 208.151 25.2744 207.26 25.2744C205.346 25.2744 203.542 26.0283 201.846 27.5361C201.034 28.2627 200.397 29.1182 199.936 30.1025C199.905 29.9775 199.889 29.7783 199.889 29.5049C199.889 28.5674 200.17 27.6338 200.733 26.7041C201.249 25.8447 201.917 25.126 202.737 24.5479C203.659 23.8994 204.71 23.5752 205.889 23.5752C206.702 23.5752 207.409 23.7119 208.01 23.9854C208.331 24.1338 208.948 24.5166 209.862 25.1338C210.643 25.665 211.241 25.9307 211.655 25.9307C212.686 25.9307 213.506 25.5049 214.116 24.6533C214.381 24.2861 214.514 23.9268 214.514 23.5752C214.514 22.958 214.327 22.4424 213.952 22.0283C213.577 21.6064 213.085 21.3955 212.475 21.3955C211.913 21.3955 210.987 21.6807 209.698 22.251C208.409 22.8135 207.483 23.0947 206.92 23.0947C206.506 23.0947 206.006 22.8877 205.42 22.4736C204.202 21.6064 203.592 20.7979 203.592 20.0479C203.592 19.6338 203.823 19.2549 204.284 18.9111C204.698 18.5908 205.124 18.4111 205.561 18.3721L205.585 18.2432L205.01 17.4346C204.69 16.9814 204.53 16.4932 204.53 15.9697C204.53 14.1729 205.999 13.2744 208.936 13.2744C209.022 13.2588 209.081 13.1885 209.112 13.0635V11.7627H203.042V10.3564H215.088V11.7627H210.928V13.7314C210.928 14.0986 211.034 14.3252 211.245 14.4111C211.377 14.4111 211.545 14.29 211.749 14.0479L212.194 13.5088C212.311 13.3916 212.522 13.3135 212.827 13.2744C213.319 13.2744 213.788 13.5557 214.233 14.1182C214.436 14.376 214.569 14.6338 214.631 14.8916L213.401 16.2979C213.385 15.9385 213.311 15.6104 213.178 15.3135C212.999 14.915 212.764 14.7158 212.475 14.7158C212.366 14.7158 212.237 14.7666 212.088 14.8682C211.94 14.9697 211.866 15.0713 211.866 15.1729C211.866 15.29 211.917 15.4307 212.018 15.5947C212.135 15.79 212.202 15.9111 212.217 15.958C212.272 16.1377 212.299 16.3643 212.299 16.6377C212.299 17.6924 211.87 18.4072 211.01 18.7822C210.44 19.0322 209.542 19.1572 208.315 19.1572C206.752 19.1572 205.686 19.5049 205.116 20.2002C204.889 20.4736 204.78 20.6963 204.788 20.8682C204.795 21.1025 204.913 21.3096 205.139 21.4893C205.366 21.6611 205.6 21.7471 205.842 21.7471C206.288 21.7471 207.143 21.4385 208.409 20.8213C209.901 20.0947 211.104 19.7236 212.018 19.708C212.854 19.6924 213.557 20.0635 214.127 20.8213C214.588 21.4229 214.92 22.1885 215.124 23.1182C215.303 23.9385 215.393 24.5557 215.393 24.9697ZM210.835 15.5596C210.835 14.6143 210.331 14.1416 209.323 14.1416C208.51 14.1416 207.741 14.4268 207.014 14.9971C206.233 15.6064 205.842 16.3057 205.842 17.0947C205.842 17.5244 206.006 17.8916 206.335 18.1963C206.67 18.501 207.053 18.6533 207.483 18.6533C207.928 18.6611 208.432 18.501 208.995 18.1729C209.495 17.8838 209.909 17.5479 210.237 17.165C210.635 16.6963 210.835 16.1611 210.835 15.5596Z" fill="white"/>
<path d="M228.506 11.7627H218.697V19.2744C218.697 19.7744 218.803 20.29 219.014 20.8213C219.443 21.9072 220.154 22.4502 221.147 22.4502C222.482 22.4502 223.498 21.8916 224.193 20.7744C224.732 19.915 225.002 19.1064 225.002 18.3486V13.6846H227.381V23.6689C227.193 23.5596 226.842 23.3916 226.326 23.165L224.979 22.5674V21.6299C224.057 22.3018 223.268 22.7275 222.611 22.9072C222.213 23.0166 221.74 23.0713 221.193 23.0713C219.459 23.0713 218.104 22.3096 217.127 20.7861C216.682 20.0908 216.459 19.333 216.459 18.5127V11.7627H215.041V10.3564H228.506V11.7627Z" fill="white"/>
<path d="M240.623 11.7627H228.775V10.3564H240.623V11.7627ZM239.65 15.9697C239.65 16.4307 239.373 16.9502 238.818 17.5283C238.349 18.0205 237.857 18.3877 237.341 18.6299L235.584 16.6377C236.115 16.5908 236.619 16.3955 237.095 16.0518C237.642 15.6611 237.916 15.2158 237.916 14.7158C237.916 14.4502 237.744 14.2236 237.4 14.0361C237.103 13.8643 236.81 13.7783 236.521 13.7783C235.92 13.7783 235.275 14.0674 234.588 14.6455C233.189 15.8174 232.49 17.1143 232.49 18.5361V23.5049L230.24 22.333V13.6611H232.513V14.5518C232.849 14.2158 233.545 13.8643 234.599 13.4971C235.115 13.3174 235.646 13.2275 236.193 13.2275C237.326 13.2275 238.287 13.6611 239.076 14.5283C239.459 14.9502 239.65 15.4307 239.65 15.9697Z" fill="white"/>
<path d="M254.028 11.7627H244.22V19.2744C244.22 19.7744 244.325 20.29 244.536 20.8213C244.966 21.9072 245.677 22.4502 246.669 22.4502C248.005 22.4502 249.021 21.8916 249.716 20.7744C250.255 19.915 250.525 19.1064 250.525 18.3486V13.6846H252.903V23.6689C252.716 23.5596 252.364 23.3916 251.849 23.165L250.501 22.5674V21.6299C249.579 22.3018 248.79 22.7275 248.134 22.9072C247.735 23.0166 247.263 23.0713 246.716 23.0713C244.982 23.0713 243.626 22.3096 242.65 20.7861C242.204 20.0908 241.982 19.333 241.982 18.5127V11.7627H240.564V10.3564H254.028V11.7627Z" fill="white"/>
<path d="M265.337 11.7627H257.649V14.7861C258.11 14.5205 258.864 14.1729 259.911 13.7432C260.34 13.626 260.86 13.5674 261.469 13.5674C262.305 13.5674 263.051 13.7979 263.708 14.2588C264.442 14.7666 264.809 15.4229 264.809 16.2275C264.809 17.3135 264.188 18.1025 262.946 18.5947C262.43 18.7979 261.985 18.8994 261.61 18.8994L264.329 22.2041L262.84 23.2822L258.657 18.3135L259.43 16.708C259.844 16.8252 260.278 16.8838 260.731 16.8838C261.395 16.8838 261.938 16.7275 262.36 16.415C262.837 16.0713 263.075 15.5791 263.075 14.9385C263.075 14.3135 262.63 14.001 261.739 14.001C261.114 14.001 260.45 14.3018 259.747 14.9033C259.247 15.333 258.79 15.8525 258.376 16.4619C257.876 17.1963 257.626 17.8252 257.626 18.3486V23.2588L255.61 22.3564V11.7627H254.122V10.3564H255.54C255.54 8.11426 255.133 6.25098 254.321 4.7666C254.165 4.47754 253.864 4.04395 253.419 3.46582C252.997 2.91113 252.704 2.46973 252.54 2.1416H254.919C255.38 2.57129 255.856 3.27832 256.348 4.2627C257.184 5.93457 257.602 7.96582 257.602 10.3564H265.337V11.7627Z" fill="white"/>
<path d="M278.801 11.7627H268.992V19.2744C268.992 19.7744 269.098 20.29 269.309 20.8213C269.738 21.9072 270.449 22.4502 271.442 22.4502C272.777 22.4502 273.793 21.8916 274.488 20.7744C275.027 19.915 275.297 19.1064 275.297 18.3486V13.6846H277.676V23.6689C277.488 23.5596 277.137 23.3916 276.621 23.165L275.274 22.5674V21.6299C274.352 22.3018 273.563 22.7275 272.906 22.9072C272.508 23.0166 272.035 23.0713 271.488 23.0713C269.754 23.0713 268.399 22.3096 267.422 20.7861C266.977 20.0908 266.754 19.333 266.754 18.5127V11.7627H265.336V10.3564H278.801V11.7627Z" fill="white"/>
<path d="M284.367 11.7627H283.125V10.3564H284.367V11.7627ZM280.359 11.7627H279.023V10.3564H280.359V11.7627ZM282.738 8.93848V23.3643C282.66 23.3408 282.558 23.2979 282.433 23.2354L281.824 22.9189C281.129 22.5596 280.761 22.3799 280.722 22.3799V8.96191C280.722 8.1416 280.562 7.27051 280.242 6.34863C279.797 5.05957 279.105 3.8877 278.168 2.83301L277.429 2.00098H279.925C281.222 3.29785 282.074 4.8877 282.48 6.77051C282.652 7.56738 282.738 8.29004 282.738 8.93848Z" fill="white"/>
<path d="M302.944 15.489V21.285C302.944 23.2263 301.964 24.197 300.004 24.197H299.5C297.54 24.197 296.56 23.2263 296.56 21.285V6.89298C296.56 5.15698 297.54 4.28898 299.5 4.28898H300.004C301.964 4.28898 302.944 5.25964 302.944 7.20098V12.997L301.46 12.829V7.20098C301.46 6.24898 300.975 5.77298 300.004 5.77298H299.5C298.529 5.77298 298.044 6.14631 298.044 6.89298V21.285C298.044 22.237 298.529 22.713 299.5 22.713H300.004C300.975 22.713 301.46 22.237 301.46 21.285V15.489H302.944ZM304.836 24.001V5.88498H304.332L304.556 4.40098H306.32V22.517H307.3L307.076 24.001H304.836ZM311.528 24.001C310.669 24.001 309.978 23.7583 309.456 23.273C308.952 22.769 308.7 22.1436 308.7 21.397V12.605C308.7 11.7463 308.942 11.1023 309.428 10.673C309.932 10.225 310.641 10.001 311.556 10.001H311.612C311.854 10.001 312.088 10.029 312.312 10.085C312.554 10.141 312.778 10.225 312.984 10.337V10.001H314.468V22.517H314.804L315.028 24.001H312.984V23.301L312.34 24.001H311.528ZM311.024 11.485C310.688 11.485 310.464 11.541 310.352 11.653C310.24 11.765 310.184 11.989 310.184 12.325V21.677C310.184 22.013 310.24 22.237 310.352 22.349C310.464 22.461 310.688 22.517 311.024 22.517H312.984V11.485H311.024ZM316.287 18.961L317.771 19.157V21.201C317.771 22.153 318.256 22.629 319.227 22.629H319.731C320.702 22.629 321.187 22.2556 321.187 21.509L321.159 18.793L316.959 16.805C316.511 16.5996 316.287 16.2263 316.287 15.685V12.493C316.287 10.757 317.267 9.88898 319.227 9.88898H319.983C321.775 9.98231 322.671 10.953 322.671 12.801V15.097L321.187 14.957V12.801C321.187 11.849 320.702 11.373 319.731 11.373H319.227C318.76 11.373 318.396 11.4663 318.135 11.653C317.892 11.821 317.771 12.045 317.771 12.325L317.799 15.629L321.999 17.617C322.447 17.8036 322.671 18.177 322.671 18.737V21.509C322.671 23.245 321.691 24.113 319.731 24.113H318.975C317.183 24.0196 316.287 23.049 316.287 21.201V18.961ZM324.339 18.961L325.823 19.157V21.201C325.823 22.153 326.308 22.629 327.279 22.629H327.783C328.754 22.629 329.239 22.2556 329.239 21.509L329.211 18.793L325.011 16.805C324.563 16.5996 324.339 16.2263 324.339 15.685V12.493C324.339 10.757 325.319 9.88898 327.279 9.88898H328.035C329.827 9.98231 330.723 10.953 330.723 12.801V15.097L329.239 14.957V12.801C329.239 11.849 328.754 11.373 327.783 11.373H327.279C326.812 11.373 326.448 11.4663 326.187 11.653C325.944 11.821 325.823 12.045 325.823 12.325L325.851 15.629L330.051 17.617C330.499 17.8036 330.723 18.177 330.723 18.737V21.509C330.723 23.245 329.743 24.113 327.783 24.113H327.027C325.235 24.0196 324.339 23.049 324.339 21.201V18.961ZM337.843 5.88498L338.123 4.40098H341.483C343.443 4.40098 344.423 5.37164 344.423 7.31298V15.181C344.423 16.917 343.443 17.785 341.483 17.785H339.831V24.001H338.347V5.88498H337.843ZM341.483 5.88498H339.831V16.301H341.483C342.453 16.301 342.939 15.9276 342.939 15.181V7.31298C342.939 6.36098 342.453 5.88498 341.483 5.88498ZM347.794 10.001V11.065L348.438 10.001H349.866V11.653H347.794V24.001H346.31V11.485H345.806L346.03 10.001H347.794ZM356.034 12.801C356.034 12.2223 355.94 11.8396 355.754 11.653C355.567 11.4663 355.175 11.373 354.578 11.373H354.074C353.495 11.373 353.103 11.4663 352.898 11.653C352.711 11.8396 352.618 12.2223 352.618 12.801V21.201C352.618 21.7796 352.711 22.1623 352.898 22.349C353.103 22.5356 353.495 22.629 354.074 22.629H354.578C355.175 22.629 355.567 22.5356 355.754 22.349C355.94 22.1623 356.034 21.7796 356.034 21.201V12.801ZM351.134 21.201V12.801C351.134 10.8596 352.114 9.88898 354.074 9.88898H354.578C356.538 9.88898 357.518 10.8596 357.518 12.801V21.201C357.518 23.1423 356.538 24.113 354.578 24.113H354.074C352.114 24.113 351.134 23.1423 351.134 21.201ZM359.367 8.96498V7.48098H360.795L361.019 8.96498H359.367ZM358.079 26.633V25.149H359.535V11.485H359.143L359.367 10.001H361.019V25.149C361.019 25.597 360.879 25.9516 360.599 26.213C360.338 26.493 359.983 26.633 359.535 26.633H358.079ZM362.699 21.201V12.801C362.699 10.8596 363.679 9.88898 365.639 9.88898H365.947C367.907 9.88898 368.887 10.8596 368.887 12.801V18.177H364.183V21.201C364.183 21.7796 364.276 22.1623 364.463 22.349C364.668 22.5356 365.06 22.629 365.639 22.629H365.947C366.544 22.629 366.936 22.5356 367.123 22.349C367.31 22.1623 367.403 21.7796 367.403 21.201V19.857H368.887V21.201C368.887 23.1423 367.907 24.113 365.947 24.113H365.639C363.679 24.113 362.699 23.1423 362.699 21.201ZM367.403 12.801C367.403 12.2223 367.31 11.8396 367.123 11.653C366.936 11.4663 366.544 11.373 365.947 11.373H365.639C365.06 11.373 364.668 11.4663 364.463 11.653C364.276 11.8396 364.183 12.2223 364.183 12.801V16.693H367.403V12.801ZM370.56 21.201V12.801C370.56 10.8596 371.54 9.88898 373.5 9.88898H373.808C375.768 9.88898 376.748 10.8596 376.748 12.801V16.133L375.264 15.965V12.801C375.264 12.2223 375.171 11.8396 374.984 11.653C374.797 11.4663 374.405 11.373 373.808 11.373H373.5C372.921 11.373 372.529 11.4663 372.324 11.653C372.137 11.8396 372.044 12.2223 372.044 12.801V21.201C372.044 21.7796 372.137 22.1623 372.324 22.349C372.529 22.5356 372.921 22.629 373.5 22.629H373.808C374.405 22.629 374.797 22.5356 374.984 22.349C375.171 22.1623 375.264 21.7796 375.264 21.201V18.149H376.748V21.201C376.748 23.1423 375.768 24.113 373.808 24.113H373.5C371.54 24.113 370.56 23.1423 370.56 21.201ZM382.005 22.517V24.001H380.661C380.213 24.001 379.849 23.8703 379.569 23.609C379.307 23.329 379.177 22.965 379.177 22.517V11.485H378.001L378.225 10.001H379.177V5.88498H378.673L378.897 4.40098H380.661V10.001H382.005L381.781 11.485H380.661V22.517H382.005Z" fill="#F3F3F3"/>
<path d="M396.313 9.83298H397.797V17.449H398.301C398.73 17.449 399.076 17.3183 399.337 17.057C399.617 16.7956 399.757 16.4503 399.757 16.021V9.30098C399.757 8.87164 399.617 8.52631 399.337 8.26498C399.076 8.00364 398.73 7.87298 398.301 7.87298H391.805C391.376 7.87298 391.021 8.00364 390.741 8.26498C390.48 8.52631 390.349 8.87164 390.349 9.30098V21.089C390.349 21.5183 390.48 21.8636 390.741 22.125C391.002 22.3863 391.357 22.517 391.805 22.517H398.301C398.73 22.517 399.076 22.3863 399.337 22.125C399.617 21.8636 399.757 21.5183 399.757 21.089V19.745H401.241V21.089C401.241 21.9476 400.97 22.6476 400.429 23.189C399.888 23.7303 399.178 24.001 398.301 24.001H391.805C390.928 24.001 390.218 23.7303 389.677 23.189C389.136 22.6476 388.865 21.9476 388.865 21.089V9.30098C388.865 8.42364 389.136 7.72364 389.677 7.20098C390.218 6.65964 390.928 6.38898 391.805 6.38898H398.301C399.178 6.38898 399.888 6.65964 400.429 7.20098C400.97 7.72364 401.241 8.42364 401.241 9.30098V16.021C401.241 16.8796 400.97 17.5796 400.429 18.121C399.906 18.6623 399.206 18.933 398.329 18.933H398.301L397.797 18.373V20.557H396.313V19.857L395.669 20.557H394.857C393.998 20.557 393.308 20.3143 392.785 19.829C392.281 19.325 392.029 18.6996 392.029 17.953V12.437C392.029 11.5783 392.281 10.9343 392.785 10.505C393.289 10.057 393.998 9.83298 394.913 9.83298C395.174 9.83298 395.417 9.87031 395.641 9.94498C395.884 10.001 396.108 10.0756 396.313 10.169V9.83298ZM394.353 11.317C394.017 11.317 393.793 11.373 393.681 11.485C393.569 11.597 393.513 11.821 393.513 12.157V18.233C393.513 18.569 393.569 18.793 393.681 18.905C393.793 19.017 394.017 19.073 394.353 19.073H396.313V11.317H394.353ZM402.793 5.88498L403.073 4.40098H406.433C408.393 4.40098 409.373 5.37164 409.373 7.31298V15.181C409.373 16.301 408.943 17.0663 408.085 17.477L409.961 24.001H408.449L406.685 17.785C406.61 17.785 406.526 17.785 406.433 17.785H404.781V24.001H403.297V5.88498H402.793ZM406.433 5.88498H404.781V16.301H406.433C407.403 16.301 407.889 15.9276 407.889 15.181V7.31298C407.889 6.36098 407.403 5.88498 406.433 5.88498ZM411.094 21.201V12.801C411.094 10.8596 412.074 9.88898 414.034 9.88898H414.342C416.302 9.88898 417.282 10.8596 417.282 12.801V18.177H412.578V21.201C412.578 21.7796 412.672 22.1623 412.858 22.349C413.064 22.5356 413.456 22.629 414.034 22.629H414.342C414.94 22.629 415.332 22.5356 415.518 22.349C415.705 22.1623 415.798 21.7796 415.798 21.201V19.857H417.282V21.201C417.282 23.1423 416.302 24.113 414.342 24.113H414.034C412.074 24.113 411.094 23.1423 411.094 21.201ZM415.798 12.801C415.798 12.2223 415.705 11.8396 415.518 11.653C415.332 11.4663 414.94 11.373 414.342 11.373H414.034C413.456 11.373 413.064 11.4663 412.858 11.653C412.672 11.8396 412.578 12.2223 412.578 12.801V16.693H415.798V12.801ZM421.783 24.001C420.924 24.001 420.234 23.7583 419.711 23.273C419.207 22.769 418.955 22.1436 418.955 21.397V12.605C418.955 11.7463 419.198 11.1023 419.683 10.673C420.187 10.225 420.896 10.001 421.811 10.001H421.867C422.11 10.001 422.343 10.029 422.567 10.085C422.81 10.141 423.034 10.225 423.239 10.337V10.001H424.723V22.517H425.059L425.283 24.001H423.239V23.301L422.595 24.001H421.783ZM421.279 11.485C420.943 11.485 420.719 11.541 420.607 11.653C420.495 11.765 420.439 11.989 420.439 12.325V21.677C420.439 22.013 420.495 22.237 420.607 22.349C420.719 22.461 420.943 22.517 421.279 22.517H423.239V11.485H421.279ZM426.542 21.201V12.801C426.542 10.8596 427.522 9.88898 429.482 9.88898H429.79C431.75 9.88898 432.73 10.8596 432.73 12.801V16.133L431.246 15.965V12.801C431.246 12.2223 431.153 11.8396 430.966 11.653C430.78 11.4663 430.388 11.373 429.79 11.373H429.482C428.904 11.373 428.512 11.4663 428.306 11.653C428.12 11.8396 428.026 12.2223 428.026 12.801V21.201C428.026 21.7796 428.12 22.1623 428.306 22.349C428.512 22.5356 428.904 22.629 429.482 22.629H429.79C430.388 22.629 430.78 22.5356 430.966 22.349C431.153 22.1623 431.246 21.7796 431.246 21.201V18.149H432.73V21.201C432.73 23.1423 431.75 24.113 429.79 24.113H429.482C427.522 24.113 426.542 23.1423 426.542 21.201ZM437.987 22.517V24.001H436.643C436.195 24.001 435.831 23.8703 435.551 23.609C435.29 23.329 435.159 22.965 435.159 22.517V11.485H433.983L434.207 10.001H435.159V5.88498H434.655L434.879 4.40098H436.643V10.001H437.987L437.763 11.485H436.643V22.517H437.987Z" fill="#F85146"/>
</svg>
